<?xml version="1.0" encoding="UTF-8" standalone="no"?>
<svg
   xmlns:dc="http://purl.org/dc/elements/1.1/"
   xmlns:cc="http://creativecommons.org/ns#"
   xmlns:rdf="http://www.w3.org/1999/02/22-rdf-syntax-ns#"
   xmlns:svg="http://www.w3.org/2000/svg"
   xmlns="http://www.w3.org/2000/svg"
   xmlns:sodipodi="http://sodipodi.sourceforge.net/DTD/sodipodi-0.dtd"
   xmlns:inkscape="http://www.inkscape.org/namespaces/inkscape"
   version="1.1"
   id="svg10"
   xml:space="preserve"
   width="521.94244"
   height="199.36226"
   viewBox="0 0 521.94245 199.36226"
   sodipodi:docname="heart_banner.svg"
   inkscape:version="1.0.1 (3bc2e813f5, 2020-09-07)"><metadata
     id="metadata16"><rdf:RDF><cc:Work
         rdf:about=""><dc:format>image/svg+xml</dc:format><dc:type
           rdf:resource="http://purl.org/dc/dcmitype/StillImage" /></cc:Work></rdf:RDF></metadata><defs
     id="defs14" /><sodipodi:namedview
     pagecolor="#ffffff"
     bordercolor="#666666"
     borderopacity="1"
     objecttolerance="10"
     gridtolerance="10"
     guidetolerance="10"
     inkscape:pageopacity="0"
     inkscape:pageshadow="2"
     inkscape:window-width="1918"
     inkscape:window-height="2054"
     id="namedview12"
     showgrid="false"
     inkscape:zoom="2.3998776"
     inkscape:cx="266.56536"
     inkscape:cy="101.67075"
     inkscape:window-x="4790"
     inkscape:window-y="0"
     inkscape:window-maximized="0"
     inkscape:current-layer="layer4" /><g
     inkscape:groupmode="layer"
     id="layer4"
     inkscape:label="Layer 1"
     transform="matrix(1.3333333,0,0,-1.3333333,-151.53294,701.45536)"><rect
       style="display:none;fill:#0000cb;fill-opacity:0.504098;stroke:#000000;stroke-width:0.75;stroke-opacity:1"
       id="rect1667"
       width="419.39639"
       height="180.94675"
       x="103.6492"
       y="-538.90466"
       transform="scale(1,-1)"
       clip-path="none" /><path
       id="path1671"
       style="fill:#630303;fill-opacity:1;stroke:#630303;stroke-width:0.75px;stroke-linecap:butt;stroke-linejoin:miter;stroke-opacity:1"
       inkscape:label="H"
       d="m 272.58086,525.93772 -77.56348,-0.22119 V 405.28147 h 56.68067 v 22.76075 H 217.6668 v 12.375 h 22.65088 c 4.68978,0.19281 2.66109,8.59002 11.4917,15.58007 h -33.70019 v 47.95313 h 51.37792 z m -107.50781,-0.22119 v -69.60938 h -29.39062 v 68.83594 l -21.65626,0.10987 0.66358,-120.32374 21.87744,0.44092 v 35.02589 h 28.06494 v -24.65186 c 2.40738,-5.89123 5.4388,-9.75189 8.23682,-14.70557 2.25112,-4.92764 3.72207,-9.46491 4.87939,-14.7832 4.12487,3.67984 6.08661,13.08399 7.87647,11.60156 v 128.05957 z m 148.94239,-0.10986 5.52538,-20.33057 h 26.84913 l 1.43555,-63.5332 c -0.25782,-12.19085 0.3685,-18.74581 -2.09912,-36.24024 h 25.30224 c -1.4364,13.59041 -0.77364,22.64984 -0.99463,40.10743 14.76897,-21.69308 34.51068,-56.64426 53.25733,-68.72462 -12.70647,22.54019 -7.29284,32.042 -6.62989,37.45606 -8.69195,13.36942 -18.48905,26.96003 -25.74463,40.43994 26.62835,13.11161 21.10614,70.8252 -14.25292,70.8252 z m 99.66357,0 -0.11133,-19.88965 c 13.40625,0.47877 22.72517,0.62653 34.91602,0.44238 0.29464,-47.32701 1.4728,-82.7214 1.87793,-116.45801 2.79911,-0.81027 3.05756,-3.60917 3.75732,-6.73974 1.36272,5.30356 4.82416,8.28661 7.07081,15.24755 3.02009,5.00894 4.71491,10.68081 10.71825,7.73438 v 99.88477 c 13.00112,1.32589 21.02931,0.22139 32.37306,-0.33106 l 0.44238,20.10938 z M 281.2,525.49534 c -4.56696,-34.73103 -12.55956,-80.06941 -21.32519,-120.104 h 23.8667 c 2.46764,25.44978 6.14982,54.32477 10.71679,77.34374 7.40291,-32.96317 11.04996,-50.67856 15.58008,-77.34374 h 26.84913 c -8.83929,23.9029 -23.09305,83.8261 -29.83301,120.104 z m 87.7295,-22.76074 c 19.18816,0 20.75266,-36.79395 0.77344,-36.79395 -1.25223,13.14844 -1.06809,25.74484 -0.77344,36.79395 z" /></g></svg>
